<svg height="512" viewBox="0 0 74 74" width="512" xmlns="http://www.w3.org/2000/svg"><g id="color_line" data-name="color line"><path d="m20.772 19.9c0 10.173 6.275 15.808 14.021 15.808s14.007-5.638 14.007-15.808v-1.092c0-10.172-6.271-15.808-14.007-15.808s-14.021 5.636-14.021 15.808z" fill="#89c5cd"/><path d="m48.8 18.81v1.09c0 7.6-3.5 12.67-8.5 14.74 3.16-2.65 5.17-6.96 5.17-12.72v-1.09c0-10.17-6.27-15.81-14.01-15.81a14.3 14.3 0 0 0 -5.5 1.06 13.562 13.562 0 0 1 8.83-3.08c7.74 0 14.01 5.64 14.01 15.81z" fill="#6eaaad"/><path d="m51.611 67.652h-45.226v-9.31c0-10.622 9.5-18.509 18.931-19.51a13.419 13.419 0 0 0 9.477 3.659 13.469 13.469 0 0 0 9.466-3.648c8.075.856 16.195 6.763 18.353 15.1" fill="#89c5cd"/><path d="m59.45 55.7-2.15 2.675h1.756l3.554-4.425c-2.16-8.34-10.28-14.25-18.35-15.11a12.465 12.465 0 0 1 -2.45 1.84c7.84 1.12 15.54 6.93 17.64 15.02z" fill="#6eaaad"/><circle cx="58.614" cy="61.999" fill="#fcd462" r="9.001"/><path d="m67.61 62a8.973 8.973 0 0 1 -4.65 7.87 9 9 0 0 0 -10.84-14.1 9 9 0 0 1 15.49 6.23z" fill="#f7be56"/><g fill="#323c6b"><path d="m58.614 66.149a.5.5 0 0 1 -.5-.5v-7.3a.5.5 0 0 1 1 0v7.3a.5.5 0 0 1 -.5.5z"/><path d="m62.264 62.5h-7.3a.5.5 0 0 1 0-1h7.3a.5.5 0 1 1 0 1z"/><path d="m18.292 14.375a.483.483 0 0 1 -.1-.011.5.5 0 0 1 -.384-.593l.044-.215c.029-.142.058-.285.091-.423a.5.5 0 0 1 .972.236c-.031.126-.057.255-.083.385l-.047.227a.5.5 0 0 1 -.493.394z"/><path d="m19.229 11.188a.5.5 0 0 1 -.182-.034.5.5 0 0 1 -.284-.647 17.227 17.227 0 0 1 6.4-8.123.5.5 0 0 1 .558.83 16.232 16.232 0 0 0 -6.021 7.655.5.5 0 0 1 -.471.319z"/><path d="m41.25 71.152h-9.812a.5.5 0 0 1 0-1h9.812a.5.5 0 0 1 0 1z"/><path d="m28.938 71.152h-.625a.5.5 0 0 1 0-1h.625a.5.5 0 0 1 0 1z"/><path d="m34.792 36.206c-8.686 0-14.521-6.554-14.521-16.309v-1.088c0-9.755 5.836-16.309 14.521-16.309s14.508 6.554 14.508 16.309v1.091c0 9.752-5.828 16.306-14.508 16.306zm0-32.706c-8.087 0-13.521 6.152-13.521 15.309v1.091c0 9.157 5.434 15.309 13.521 15.309s13.508-6.155 13.508-15.309v-1.091c0-9.157-5.426-15.309-13.508-15.309z"/><path d="m51.611 68.152h-45.226a.5.5 0 0 1 -.5-.5v-9.31c0-11.087 10.059-19.018 19.378-20.007a.5.5 0 0 1 .4.137 12.855 12.855 0 0 0 9.13 3.52 13.046 13.046 0 0 0 9.119-3.509.491.491 0 0 1 .4-.136c8.806.934 16.706 7.443 18.784 15.477a.5.5 0 1 1 -.968.25c-1.96-7.576-9.38-13.729-17.695-14.708a14.074 14.074 0 0 1 -9.64 3.626 13.861 13.861 0 0 1 -9.652-3.637c-8.825 1.045-18.256 8.545-18.256 18.987v8.81h44.726a.5.5 0 0 1 0 1z"/></g><path d="m11.225 57.318a.682.682 0 0 1 -.083 0 .651.651 0 0 1 -.563-.727 15.137 15.137 0 0 1 4.861-9.18.65.65 0 0 1 .888.95 13.849 13.849 0 0 0 -4.459 8.394.65.65 0 0 1 -.644.563z" fill="#fff"/><path d="m11.116 60.629a.65.65 0 0 1 -.65-.65v-.625a.65.65 0 1 1 1.3 0v.625a.65.65 0 0 1 -.65.65z" fill="#fff"/><path d="m58.614 71.5a9.5 9.5 0 1 1 9.5-9.5 9.512 9.512 0 0 1 -9.5 9.5zm0-18a8.5 8.5 0 1 0 8.5 8.5 8.511 8.511 0 0 0 -8.5-8.5z" fill="#323c6b"/></g></svg>